<svg xmlns="http://www.w3.org/2000/svg" viewBox="0 0 222 148" fill="currentColor" aria-hidden="true">
  <path d="M110.375,137.927c-10.739,6.154-23.191,9.659-36.457,9.659C33.243,147.586.25,114.593.25,73.918S33.243.25,73.918.25c8.437,0,16.527,1.406,24.067,4.015v.02c.143.835.224,5.38-7.886,23.904-3.138,7.153-7.5,16.384-13.552,28.285-.244.469-.469.958-.693,1.427-25.187,51.985,31.199,78.518,34.521,80.026Z" opacity=".92"></path>
  <path d="M221.397,74.061c0,40.696-32.972,73.668-73.668,73.668-13.429,0-26.023-3.607-36.864-9.883,3.974-1.997,42.815-22.62,42.081-67.371-.55-32.055-25.738-51.191-41.837-60.137-.061-.041-.122-.081-.163-.102C121.766,3.979,134.34.393,147.728.393c40.696,0,73.668,32.993,73.668,73.668Z" opacity=".92"></path>
  <path d="M152.945,70.474c.734,44.751-38.108,65.374-42.081,67.371-.061-.041-.122-.061-.163-.102-.102.061-.204.122-.326.183-3.322-1.508-59.709-28.041-34.521-80.026.224-.469.449-.958.693-1.427,6.052-11.901,10.414-21.132,13.552-28.285,8.111-18.524,8.029-23.068,7.886-23.904,1.426.469,2.832,1.019,4.218,1.589.244.102.489.204.754.326.448.204.917.428,1.406.652.407.183.815.387,1.263.611.326.163.632.306.978.489.652.326,1.366.693,2.079,1.06.367.204.734.387,1.121.591.367.204.754.428,1.141.632.041.02.101.061.163.102,16.099,8.946,41.287,28.082,41.837,60.137Z" opacity="1"></path>
</svg>