<?xml version="1.0" encoding="UTF-8"?>
<svg id="Calque_2" data-name="Calque 2" xmlns="http://www.w3.org/2000/svg" viewBox="0 0 1120.361 147.979">
  <defs>
    
  </defs>
  <g id="Layer_1" data-name="Layer 1">
    <g>
      <path class="cls-3" d="M110.375,137.927c-10.739,6.154-23.191,9.659-36.457,9.659C33.243,147.586.25,114.593.25,73.918S33.243.25,73.918.25c8.437,0,16.527,1.406,24.067,4.015v.02c.143.835.224,5.38-7.886,23.904-3.138,7.153-7.5,16.384-13.552,28.285-.244.469-.469.958-.693,1.427-25.187,51.985,31.199,78.518,34.521,80.026Z"></path>
      <path class="cls-3" d="M221.397,74.061c0,40.696-32.972,73.668-73.668,73.668-13.429,0-26.023-3.607-36.864-9.883,3.974-1.997,42.815-22.62,42.081-67.371-.55-32.055-25.738-51.191-41.837-60.137-.061-.041-.122-.081-.163-.102C121.766,3.979,134.34.393,147.728.393c40.696,0,73.668,32.993,73.668,73.668Z"></path>
      <path class="cls-2" d="M152.945,70.474c.734,44.751-38.108,65.374-42.081,67.371-.061-.041-.122-.061-.163-.102-.102.061-.204.122-.326.183-3.322-1.508-59.709-28.041-34.521-80.026.224-.469.449-.958.693-1.427,6.052-11.901,10.414-21.132,13.552-28.285,8.111-18.524,8.029-23.068,7.886-23.904,1.426.469,2.832,1.019,4.218,1.589.244.102.489.204.754.326.448.204.917.428,1.406.652.407.183.815.387,1.263.611.326.163.632.306.978.489.652.326,1.366.693,2.079,1.06.367.204.734.387,1.121.591.367.204.754.428,1.141.632.041.02.101.061.163.102,16.099,8.946,41.287,28.082,41.837,60.137Z"></path>
    </g>
    <g>
      <path class="cls-1" d="M336.082,75.295h29.915v49.573c-13.847,9.915-32.821,15.215-50.258,15.215-38.121,0-65.984-25.812-65.984-62.224s27.863-62.224,66.668-62.224c22.395,0,40.514,7.692,52.309,21.881l-21.538,19.487c-8.206-9.061-17.607-13.334-29.061-13.334-20.514,0-34.188,13.505-34.188,34.189,0,20.171,13.675,34.188,33.847,34.188,6.325,0,12.308-1.196,18.291-3.932v-32.821Z"></path>
      <path class="cls-1" d="M439.841,105.893h-18.462v31.796h-33.847V18.028h54.702c32.65,0,53.164,16.924,53.164,44.274,0,17.607-8.548,30.6-23.42,37.779l25.812,37.607h-36.24l-21.71-31.796ZM440.183,44.696h-18.804v35.043h18.804c14.018,0,21.026-6.496,21.026-17.437,0-11.111-7.009-17.606-21.026-17.606Z"></path>
      <path class="cls-1" d="M610.098,111.535v26.154h-96.07V18.028h93.849v26.154h-60.343v20.172h53.163v25.3h-53.163v21.881h62.564Z"></path>
      <path class="cls-1" d="M724.971,111.535v26.154h-96.07V18.028h93.848v26.154h-60.343v20.172h53.163v25.3h-53.163v21.881h62.565Z"></path>
      <path class="cls-1" d="M857.623,18.028v119.661h-27.864l-52.821-63.762v63.762h-33.163V18.028h27.863l52.822,63.763V18.028h33.163Z"></path>
      <path class="cls-1" d="M995.403,104.868c0,20.685-17.095,32.821-49.232,32.821h-64.617V18.028h61.198c31.454,0,46.839,12.821,46.839,31.283,0,11.453-5.812,20.684-16.068,25.983,13.504,4.786,21.881,15.043,21.881,29.573ZM915.059,42.473v23.077h23.248c11.282,0,17.094-3.932,17.094-11.624,0-7.521-5.812-11.453-17.094-11.453h-23.248ZM961.213,101.107c0-8.205-6.154-12.137-17.778-12.137h-28.376v24.273h28.376c11.624,0,17.778-3.932,17.778-12.137Z"></path>
      <path class="cls-1" d="M1074.547,94.782v42.907h-33.847v-43.42l-45.642-76.241h35.727l28.377,47.522,28.377-47.522h32.821l-45.813,76.754Z"></path>
    </g>
  </g>
</svg>